<svg version="1.2" xmlns="http://www.w3.org/2000/svg" viewBox="0 0 512 256" width="512" height="256">
	<title>template</title>
	<style>
		.s0 { fill: #000000 } 
	</style>
	<path id="SWIFT" class="s0" aria-label="SWIFT"  d="m104.6 56.2h-12.8q-0.9-8.1-7.7-12.6-6.8-4.5-16.8-4.5-7.2 0-12.6 2.4-5.4 2.3-8.4 6.4-3 4.1-3 9.3 0 4.4 2 7.6 2.2 3 5.5 5.1 3.3 2 6.9 3.4 3.6 1.3 6.7 2.1l11 2.9q4.3 1.2 9.5 3.1 5.3 2 10.1 5.4 4.8 3.4 8 8.6 3.1 5.3 3.1 13 0 8.8-4.6 16-4.6 7.1-13.4 11.3-8.8 4.2-21.4 4.2-11.7 0-20.3-3.8-8.5-3.7-13.4-10.5-4.9-6.8-5.5-15.7h13.6q0.6 6.2 4.2 10.2 3.7 4 9.3 6 5.6 1.9 12.1 1.9 7.6 0 13.6-2.5 6-2.5 9.5-6.9 3.5-4.5 3.5-10.4 0-5.5-3-8.9-3-3.4-8-5.5-4.9-2.1-10.7-3.7l-13.4-3.9q-12.8-3.7-20.3-10.5-7.4-6.8-7.4-17.8 0-9.2 4.9-16 5-6.9 13.5-10.6 8.4-3.9 18.9-3.9 10.5 0 18.7 3.8 8.2 3.7 13 10.2 4.9 6.5 5.1 14.8zm-3.9 0h-12.8q-1-8.1-7.8-12.6-6.8-4.5-16.7-4.5-7.3 0-12.7 2.4-5.4 2.3-8.4 6.4-3 4.1-3 9.3 0 4.4 2.1 7.6 2.1 3 5.4 5.1 3.3 2 6.9 3.4 3.7 1.3 6.7 2.1l11.1 2.9q4.2 1.2 9.5 3.1 5.2 2 10 5.4 4.9 3.4 8 8.6 3.2 5.3 3.2 13 0 8.8-4.7 16-4.5 7.1-13.4 11.3-8.8 4.2-21.4 4.2-11.7 0-20.2-3.8-8.6-3.7-13.5-10.5-4.8-6.8-5.5-15.7h13.7q0.5 6.2 4.1 10.2 3.7 4 9.3 6 5.7 1.9 12.1 1.9 7.6 0 13.6-2.5 6.1-2.5 9.6-6.9 3.5-4.5 3.5-10.4 0-5.5-3.1-8.9-3-3.4-7.9-5.5-5-2.1-10.7-3.7l-13.5-3.9q-12.8-3.7-20.2-10.5-7.5-6.8-7.5-17.8 0-9.2 5-16 5-6.9 13.4-10.6 8.5-3.9 18.9-3.9 10.6 0 18.8 3.8 8.2 3.7 13 10.2 4.8 6.5 5.1 14.8zm64.7 81.8h-13.7l-29.8-109.1h13.4l22.8 88.9h1.1l23.2-88.9h14.9l23.2 88.9h1.1l22.8-88.9h13.4l-29.8 109.1h-13.6l-24.1-86.9h-0.9zm-3.9 0h-13.7l-29.8-109.1h13.4l22.8 88.8h1.1l23.2-88.8h14.9l23.3 88.8h1l22.8-88.8h13.5l-29.9 109.1h-13.6l-24.1-87h-0.8zm116.8-109.1h13.2v109.1h-13.2zm-3.9 0h13.2v109.1h-13.2zm60.8 109.1h-13.2v-109.1h65.4v11.7h-52.2v36.9h47.3v11.7h-47.3zm-3.9 0h-13.2v-109.1h65.4v11.8h-52.2v36.8h47.3v11.7h-47.3zm111.1-97.3h-34.3v-11.8h81.8v11.8h-34.3v97.3h-13.2zm-4 0h-34.3v-11.7h81.9v11.7h-34.3v97.4h-13.3z"/>
	<path id="e-learning" class="s0" aria-label="e-learning"  d="m147.1 195.6q-4 0-6.8-1.8-2.9-1.7-4.4-4.9-1.5-3.1-1.5-7.3 0-4.2 1.5-7.4 1.5-3.2 4.3-5 2.7-1.8 6.4-1.8 2.2 0 4.2 0.7 2.1 0.7 3.8 2.3 1.7 1.6 2.7 4.2 1.1 2.6 1.1 6.4v1.8h-21.1v-3.6h16.8q0-2.3-0.9-4.2-0.9-1.8-2.6-2.8-1.7-1.1-4-1.1-2.5 0-4.3 1.3-1.8 1.2-2.8 3.2-1 1.9-1 4.2v2.4q0 3.1 1.1 5.3 1.1 2.1 3 3.2 1.9 1.1 4.5 1.1 1.6 0 2.9-0.5 1.4-0.4 2.4-1.4 1-0.9 1.5-2.4l4 1.2q-0.6 2-2.1 3.6-1.5 1.5-3.7 2.4-2.3 0.9-5 0.9zm-1.4 0q-3.9 0-6.8-1.8-2.8-1.7-4.3-4.9-1.6-3.1-1.6-7.3 0-4.2 1.6-7.4 1.5-3.2 4.3-5 2.7-1.8 6.4-1.8 2.2 0 4.2 0.7 2.1 0.7 3.8 2.3 1.7 1.6 2.7 4.2 1 2.6 1 6.4v1.8h-21v-3.6h16.8q0-2.3-0.9-4.2-1-1.8-2.6-2.8-1.7-1.1-4-1.1-2.5 0-4.3 1.3-1.8 1.2-2.8 3.2-1 1.9-1 4.2v2.4q0 3.1 1.1 5.3 1.1 2.1 3 3.2 1.9 1.1 4.4 1.1 1.7 0 3-0.5 1.4-0.4 2.4-1.4 0.9-0.9 1.5-2.4l4 1.2q-0.6 2-2.1 3.6-1.5 1.5-3.8 2.4-2.2 0.9-5 0.9zm20.1-18.1h15.9v3.9h-15.9zm-1.3 0h15.9v3.9h-15.9zm26-18.9h4.2v36.4h-4.2zm-1.4 0h4.2v36.4h-4.2zm26 36.9q-3.9 0-6.8-1.7-2.8-1.8-4.4-4.9-1.5-3.2-1.5-7.4 0-4.2 1.5-7.4 1.6-3.2 4.3-5 2.8-1.8 6.5-1.8 2.1 0 4.2 0.7 2.1 0.7 3.8 2.3 1.7 1.6 2.7 4.2 1 2.6 1 6.4v1.8h-21v-3.6h16.7q0-2.3-0.9-4.1-0.9-1.8-2.6-2.9-1.6-1-3.9-1-2.5 0-4.4 1.2-1.8 1.2-2.7 3.2-1 2-1 4.2v2.5q0 3 1 5.2 1.1 2.1 3.1 3.2 1.9 1.1 4.4 1.1 1.7 0 3-0.4 1.3-0.5 2.3-1.4 1-1 1.5-2.4l4.1 1.1q-0.7 2.1-2.2 3.6-1.5 1.6-3.7 2.5-2.2 0.8-5 0.8zm-1.3 0q-4 0-6.8-1.7-2.9-1.8-4.4-4.9-1.5-3.2-1.5-7.4 0-4.2 1.5-7.4 1.5-3.2 4.3-5 2.8-1.8 6.5-1.8 2.1 0 4.2 0.7 2 0.7 3.8 2.3 1.7 1.6 2.7 4.2 1 2.6 1 6.4v1.8h-21v-3.6h16.7q0-2.3-0.9-4.1-0.9-1.8-2.6-2.9-1.7-1-3.9-1-2.5 0-4.4 1.2-1.8 1.2-2.8 3.2-0.9 2-0.9 4.2v2.5q0 3 1 5.2 1.1 2.1 3 3.2 1.9 1.1 4.5 1.1 1.6 0 3-0.4 1.3-0.5 2.3-1.4 1-1 1.5-2.4l4.1 1.1q-0.7 2.1-2.2 3.6-1.5 1.6-3.7 2.5-2.2 0.8-5 0.8zm28.4 0.1q-2.6 0-4.7-1-2.2-1-3.4-2.9-1.2-1.8-1.2-4.5 0-2.3 0.9-3.8 0.9-1.5 2.5-2.3 1.5-0.8 3.4-1.3 1.8-0.4 3.7-0.6 2.5-0.3 4.1-0.5 1.5-0.2 2.2-0.6 0.8-0.4 0.8-1.4v-0.2q0-2.6-1.5-4-1.4-1.5-4.3-1.5-3 0-4.7 1.3-1.7 1.3-2.4 2.8l-4-1.4q1.1-2.5 2.9-3.9 1.8-1.4 3.9-1.9 2.1-0.6 4.2-0.6 1.3 0 3 0.3 1.7 0.3 3.3 1.3 1.6 1 2.7 2.9 1.1 1.9 1.1 5.2v17.9h-4.2v-3.7h-0.2q-0.5 0.9-1.5 1.9-1 1.1-2.6 1.8-1.7 0.7-4 0.7zm0.6-3.8q2.5 0 4.2-1 1.7-0.9 2.6-2.5 0.9-1.5 0.9-3.2v-3.9q-0.3 0.4-1.2 0.6-0.9 0.3-2.1 0.5-1.1 0.1-2.2 0.3-1.1 0.1-1.8 0.2-1.6 0.2-3 0.7-1.4 0.4-2.3 1.4-0.8 0.9-0.8 2.5 0 2.2 1.6 3.3 1.6 1.1 4.1 1.1zm-2 3.8q-2.5 0-4.7-1-2.1-1-3.3-2.9-1.3-1.8-1.3-4.5 0-2.3 1-3.8 0.9-1.5 2.4-2.3 1.6-0.8 3.4-1.3 1.9-0.4 3.8-0.6 2.5-0.3 4.1-0.5 1.5-0.2 2.2-0.6 0.8-0.4 0.8-1.4v-0.2q0-2.6-1.5-4-1.4-1.5-4.3-1.5-3 0-4.7 1.3-1.7 1.3-2.4 2.8l-4-1.4q1.1-2.5 2.9-3.9 1.8-1.4 3.9-1.9 2.1-0.6 4.2-0.6 1.3 0 3 0.3 1.7 0.3 3.3 1.3 1.6 1 2.7 2.9 1 1.9 1 5.2v17.9h-4.1v-3.7h-0.3q-0.4 0.9-1.4 1.9-1 1.1-2.6 1.8-1.7 0.7-4.1 0.7zm0.7-3.8q2.5 0 4.2-1 1.7-0.9 2.6-2.5 0.9-1.5 0.9-3.2v-3.9q-0.3 0.4-1.2 0.6-0.9 0.3-2.1 0.5-1.1 0.1-2.2 0.3-1.1 0.1-1.8 0.2-1.6 0.2-3 0.7-1.4 0.4-2.3 1.4-0.9 0.9-0.9 2.5 0 2.2 1.7 3.3 1.6 1.1 4.1 1.1zm26.4 3.1h-4.2v-27.2h4v4.1h0.3q0.8-2 2.7-3.3 2-1.3 4.4-1.3 0.5 0 1.2 0.1 0.7 0 1 0v4.3q-0.2-0.1-1-0.2-0.7-0.1-1.5-0.1-2 0-3.6 0.8-1.5 0.8-2.4 2.3-0.9 1.4-0.9 3.3zm-1.3 0h-4.2v-27.3h4v4.1h0.3q0.7-2 2.7-3.3 2-1.2 4.4-1.2 0.5 0 1.2 0 0.7 0 1 0.1v4.2q-0.2 0-1-0.1-0.7-0.2-1.6-0.2-1.9 0-3.5 0.9-1.5 0.8-2.5 2.2-0.8 1.5-0.8 3.3zm21.2-16.4v16.4h-4.2v-27.2h4.1v4.2h0.3q1-2.1 3-3.3 1.9-1.3 5-1.3 2.8 0 4.9 1.1 2 1.1 3.2 3.4 1.1 2.3 1.1 5.8v17.3h-4.2v-17q0-3.2-1.6-5-1.7-1.8-4.6-1.8-2 0-3.6 0.8-1.6 0.9-2.5 2.6-0.9 1.6-0.9 4zm-1.3 0v16.4h-4.2v-27.2h4.1v4.2h0.3q1-2.1 2.9-3.3 2-1.3 5.1-1.3 2.8 0 4.8 1.1 2.1 1.1 3.3 3.4 1.1 2.3 1.1 5.8v17.3h-4.2v-17q0-3.2-1.6-5-1.7-1.8-4.6-1.8-2 0-3.6 0.8-1.6 0.9-2.5 2.6-0.9 1.6-0.9 4zm31.9 16.4h-4.1v-27.2h4.1zm-2-31.9q-1.2 0-2.1-0.8-0.9-0.8-0.9-2 0-1.2 0.9-2 0.9-0.8 2.1-0.8 1.2 0 2.1 0.8 0.9 0.8 0.9 2 0 1.2-0.9 2-0.9 0.8-2.1 0.8zm0.7 31.9h-4.2v-27.3h4.2zm-2-31.8q-1.3 0-2.1-0.9-0.9-0.8-0.9-2 0-1.2 0.9-2 0.8-0.8 2.1-0.8 1.2 0 2.1 0.8 0.9 0.8 0.9 2 0 1.2-0.9 2-0.9 0.9-2.1 0.9zm16.6 15.4v16.4h-4.2v-27.3h4v4.3h0.4q0.9-2.1 2.9-3.4 1.9-1.3 5-1.3 2.8 0 4.9 1.2 2.1 1.1 3.2 3.4 1.2 2.3 1.2 5.7v17.4h-4.2v-17.1q0-3.2-1.7-5-1.7-1.8-4.6-1.8-2 0-3.6 0.9-1.5 0.9-2.4 2.5-0.9 1.7-0.9 4.1zm-1.4 0v16.4h-4.2v-27.3h4.1v4.3h0.4q0.9-2.1 2.9-3.4 1.9-1.3 5-1.3 2.8 0 4.9 1.2 2 1.1 3.2 3.4 1.1 2.3 1.1 5.7v17.4h-4.1v-17.1q0-3.2-1.7-5-1.7-1.8-4.6-1.8-2 0-3.6 0.9-1.5 0.9-2.5 2.5-0.9 1.7-0.9 4.1zm38.8 27.2q-3 0-5.2-0.8-2.2-0.8-3.7-2-1.4-1.3-2.3-2.7l3.4-2.3q0.5 0.7 1.4 1.7 0.9 0.9 2.4 1.7 1.5 0.7 4 0.7 3.3 0 5.4-1.6 2.2-1.6 2.2-5v-5.6h-0.4q-0.4 0.8-1.3 1.9-0.8 1.1-2.4 1.9-1.6 0.9-4.2 0.9-3.3 0-6-1.6-2.6-1.6-4.1-4.6-1.5-2.9-1.5-7.2 0-4.2 1.5-7.3 1.4-3.1 4.1-4.8 2.6-1.8 6-1.8 2.7 0 4.3 0.9 1.6 0.9 2.4 2 0.8 1.1 1.3 1.8h0.4v-4.3h4.1v28.1q0 3.5-1.6 5.7-1.6 2.2-4.3 3.2-2.6 1.1-5.9 1.1zm-0.2-15q2.6 0 4.3-1.2 1.7-1.1 2.7-3.3 0.9-2.2 0.9-5.2 0-2.9-0.9-5.2-0.9-2.2-2.7-3.5-1.7-1.3-4.3-1.3-2.6 0-4.4 1.4-1.8 1.3-2.6 3.6-0.9 2.3-0.9 5 0 2.9 0.9 5.1 0.9 2.1 2.6 3.4 1.8 1.2 4.4 1.2zm-1.1 15q-3.1 0-5.3-0.8-2.1-0.8-3.6-2-1.4-1.3-2.3-2.7l3.4-2.3q0.5 0.7 1.4 1.7 0.9 0.9 2.4 1.7 1.5 0.7 4 0.7 3.3 0 5.4-1.6 2.2-1.6 2.2-5v-5.6h-0.4q-0.4 0.8-1.3 1.9-0.8 1.1-2.4 1.9-1.6 0.9-4.2 0.9-3.3 0-6-1.6-2.6-1.6-4.1-4.6-1.5-2.9-1.5-7.2 0-4.2 1.5-7.3 1.4-3.1 4.1-4.8 2.6-1.8 6-1.8 2.7 0 4.3 0.9 1.5 0.9 2.4 2 0.8 1.1 1.3 1.8h0.4v-4.3h4.1v28.1q0 3.5-1.6 5.7-1.6 2.2-4.3 3.2-2.7 1.1-5.9 1.1zm-0.2-15q2.5 0 4.3-1.2 1.7-1.1 2.6-3.3 0.9-2.2 0.9-5.2 0-2.9-0.8-5.2-0.9-2.2-2.7-3.5-1.7-1.3-4.3-1.3-2.6 0-4.4 1.4-1.8 1.3-2.7 3.6-0.8 2.3-0.8 5 0 2.9 0.9 5.1 0.9 2.1 2.6 3.4 1.8 1.2 4.4 1.2z"/>
	<path id="Shape 1" class="s0" d="m43.5 222.8v-5l425.5-2.2v5z"/>
</svg>